Coordinates
version=1
nRows=24
nColumns=24
inDegrees=yes

Units are S.I. units (second, meters, Newtons, ...)
Angles are in degrees.

endheader
time	pelvis_tilt	pelvis_list	pelvis_rotation	pelvis_tx	pelvis_ty	pelvis_tz	hip_flexion_r	hip_adduction_r	hip_rotation_r	knee_angle_r	ankle_angle_r	subtalar_angle_r	mtp_angle_r	hip_flexion_l	hip_adduction_l	hip_rotation_l	knee_angle_l	ankle_angle_l	subtalar_angle_l	mtp_angle_l	lumbar_extension	lumbar_bending	lumbar_rotation
      5.54000000	      8.21948690	      3.28407800	     -2.77383573	     -1.88420238	      0.75029728	      0.20794052	     14.34787053	     -2.18893081	      2.73490344	    -64.41382312	      9.19676261	    -11.11605971	      0.00000000	     -1.76773656	      9.18377502	     -2.74158072	     -6.60939264	      7.05887227	    -20.68753875	      0.00000000	    -29.06295338	     -6.19234512	     -5.42876664
      5.55000000	      8.23126947	      2.84408304	     -2.09766949	     -1.87290131	      0.75165641	      0.20707120	     15.27067181	     -1.42662050	      2.78257563	    -62.54103464	      9.63425661	    -12.43698696	      0.00000000	     -2.98739983	      8.74576190	     -2.07523493	     -6.30760745	      7.79851829	    -20.29300653	      0.00000000	    -29.06187996	     -5.41322616	     -5.63898988
      5.56000000	      8.20064199	      2.47351019	     -1.45696325	     -1.86165426	      0.75266508	      0.20624246	     16.10796684	     -0.77208870	      2.88554210	    -60.30588050	      9.72951577	    -14.22825701	      0.00000000	     -4.12811395	      8.35937016	     -1.45127230	     -6.02329913	      8.55648477	    -19.91695640	      0.00000000	    -29.01492584	     -4.72196276	     -5.86826566
      5.57000000	      8.15152138	      2.19373381	     -0.85027783	     -1.85044756	      0.75332387	      0.20546307	     16.83391305	     -0.26936677	      3.01489945	    -57.72798723	      9.44739871	    -16.56032772	      0.00000000	     -5.22140739	      8.05166754	     -0.88781815	     -5.74823100	      9.30349909	    -19.56869923	      0.00000000	    -28.95655372	     -4.14969534	     -6.07266361
      5.58000000	      8.09129115	      2.00815138	     -0.25651906	     -1.83924454	      0.75364290	      0.20466497	     17.42296200	      0.06361864	      3.15257348	    -54.80754337	      8.86932271	    -19.21171297	      0.00000000	     -6.28511598	      7.83419699	     -0.31151583	     -5.48609105	     10.04372946	    -19.27532801	      0.00000000	    -28.89891014	     -3.66081818	     -6.37733357
      5.59000000	      8.02837901	      1.93249771	      0.29507849	     -1.82802549	      0.75362948	      0.20393560	     17.87113692	      0.21010541	      3.29346960	    -51.56345310	      7.98500685	    -22.21004793	      0.00000000	     -7.32874364	      7.71938582	      0.24777481	     -5.24381211	     10.75021639	    -19.03155804	      0.00000000	    -28.85762874	     -3.32280520	     -6.67127860
      5.60000000	      7.96737528	      1.97132517	      0.83659642	     -1.81674165	      0.75330168	      0.20320267	     18.16524888	      0.14727566	      3.38150169	    -48.01486170	      6.92400775	    -25.22393291	      0.00000000	     -8.36539667	      7.71425530	      0.81451390	     -5.02463377	     11.46387472	    -18.83682128	      0.00000000	    -28.83582076	     -3.09336856	     -7.02964902
      5.61000000	      7.90375483	      2.11899034	      1.35836541	     -1.80537966	      0.75267150	      0.20252392	     18.31502474	     -0.11040093	      3.38981961	    -44.18453081	      5.79511284	    -28.02281752	      0.00000000	     -9.38795647	      7.80758542	      1.37995033	     -4.84159746	     12.17580861	    -18.67286705	      0.00000000	    -28.82963775	     -3.00018212	     -7.44341790
      5.62000000	      7.83548678	      2.37646789	      1.87696495	     -1.79391481	      0.75174855	      0.20185971	     18.33120230	     -0.56837461	      3.25808261	    -40.11307127	      4.82335291	    -30.18854889	      0.00000000	    -10.39346005	      7.99975000	      1.94872385	     -4.70921546	     12.89841434	    -18.51946349	      0.00000000	    -28.83422932	     -3.02283086	     -7.91881243
      5.63000000	      7.65736152	      2.79099829	      2.37470387	     -1.78236955	      0.75039908	      0.20125655	     18.37380219	     -1.23487431	      3.05099836	    -35.90136769	      3.94625238	    -31.71303587	      0.00000000	    -11.25381726	      8.34795191	      2.51859629	     -4.65973407	     13.67952146	    -18.37641633	      0.00000000	    -28.73303520	     -3.24347892	     -8.45518554
      5.64000000	      7.50087582	      3.26561192	      2.86712123	     -1.77071011	      0.74881900	      0.20065343	     18.29383733	     -2.02906209	      2.57036576	    -31.55055422	      3.68982249	    -31.76788083	      0.00000000	    -12.13282911	      8.74476628	      3.10382742	     -4.66324183	     14.44292883	    -18.26270462	      0.00000000	    -28.67097188	     -3.52378996	     -9.00428295
      5.65000000	      7.34398862	      3.78132619	      3.31978007	     -1.75893332	      0.74699261	      0.20016628	     18.09069692	     -2.79746621	      2.20197935	    -27.06172419	      3.39542957	    -31.31485659	      0.00000000	    -13.01409094	      9.16817572	      3.61071902	     -4.69542335	     15.19548741	    -18.15281541	      0.00000000	    -28.61892270	     -3.87824604	     -9.57092680
      5.66000000	      7.22348192	      4.32989043	      3.73859805	     -1.74704732	      0.74497420	      0.19973788	     17.77865447	     -3.56984499	      1.77475756	    -22.54343737	      3.41839147	    -29.76721879	      0.00000000	    -13.92244051	      9.61171209	      4.04681256	     -4.78790265	     15.97146070	    -17.97931141	      0.00000000	    -28.62073891	     -4.28424142	    -10.11469377
      5.67000000	      6.99502127	      4.97101413	      4.14443742	     -1.73507216	      0.74260439	      0.19931335	     17.62731395	     -4.44220657	      1.10691097	    -18.22613100	      4.12007954	    -26.74258560	      0.00000000	    -14.67746270	     10.15363519	      4.47283450	     -5.00055745	     16.81139830	    -17.71795539	      0.00000000	    -28.50745204	     -4.80543678	    -10.68791895
      5.68000000	      6.84965908	      5.56655834	      4.49534104	     -1.72295426	      0.74016306	      0.19898548	     17.32756342	     -5.17257495	      0.61662962	    -13.99971201	      4.76776103	    -23.35005602	      0.00000000	    -15.52602641	     10.63366046	      4.84066933	     -5.23480514	     17.58756471	    -17.50356614	      0.00000000	    -28.48462083	     -5.29285191	    -11.19636802
      5.69000000	      6.72489497	      6.12802037	      4.82284638	     -1.71070603	      0.73762369	      0.19871345	     17.00075217	     -5.81217934	      0.21906838	    -10.02938397	      5.51109271	    -19.58268008	      0.00000000	    -16.37368122	     11.06462944	      5.17039155	     -5.54058793	     18.32648010	    -17.28060204	      0.00000000	    -28.47967516	     -5.75087914	    -11.70039206
      5.70000000	      6.64345773	      6.62902877	      5.12142770	     -1.69832303	      0.73508032	      0.19850488	     16.61647343	     -6.33689055	      0.04940965	     -6.38061103	      6.30821035	    -15.80859230	      0.00000000	    -17.23857588	     11.41856058	      5.48246009	     -5.92359338	     19.01930781	    -17.05277453	      0.00000000	    -28.51488023	     -6.14743748	    -12.16667095
      5.71000000	      6.60645088	      7.03826172	      5.39532149	     -1.68580383	      0.73261241	      0.19836386	     16.16914167	     -6.73224878	      0.18916831	     -3.11239256	      7.09225590	    -12.39316670	      0.00000000	    -18.11114940	     11.66259456	      5.79214522	     -6.39347206	     19.63995439	    -16.84290226	      0.00000000	    -28.58940260	     -6.44595657	    -12.59842368
      5.72000000	      6.66562562	      7.33928127	      5.64154476	     -1.67312646	      0.73034534	      0.19829552	     15.51750379	     -6.99914382	      1.03704977	     -0.15502611	      7.45693201	    -10.27906232	      0.00000000	    -19.04828341	     11.77246028	      6.08306822	     -6.93554593	     20.07123065	    -16.74623176	      0.00000000	    -28.75607971	     -6.61472101	    -13.03202898
      5.73000000	      6.64328777	      7.52657622	      5.90574260	     -1.66037634	      0.72822741	      0.19826228	     15.19218816	     -7.14239924	      1.05583069	      1.89513975	      8.62868032	     -7.21340575	      0.00000000	    -19.75258542	     11.76788515	      6.40386411	     -7.74371877	     20.48747583	    -16.54734536	      0.00000000	    -28.83169309	     -6.67551684	    -13.38690430
      5.74000000	      6.67019195	      7.64250396	      6.14747395	     -1.64747021	      0.72640173	      0.19830922	     14.69439239	     -7.20433410	      1.98121295	      3.56181228	      9.06096234	     -6.21805533	      0.00000000	    -20.41226016	     11.68333699	      6.72520080	     -8.72999980	     20.64480011	    -16.51695345	      0.00000000	    -28.95129727	     -6.65528214	    -13.75846898
      5.75000000	      6.77494980	      7.56849680	      6.40282587	     -1.63440285	      0.72503385	      0.19841218	     14.20305157	     -7.02195324	      2.57162324	      4.49633514	      9.44943673	     -5.50081143	      0.00000000	    -21.00397961	     11.38414890	      6.99114619	     -9.95718372	     20.60390479	    -16.48684937	      0.00000000	    -29.13137430	     -6.40905590	    -14.11485417
      5.76000000	      6.86245104	      7.37614820	      6.65737413	     -1.62113101	      0.72405823	      0.19860394	     13.76797370	     -6.66130901	      2.91132199	      4.81926119	      9.62105637	     -5.15417124	      0.00000000	    -21.38218735	     10.96824679	      7.15120288	    -11.50811848	     20.30925733	    -16.47811607	      0.00000000	    -29.25173139	     -6.05613155	    -14.38852695
      5.77000000	      6.96407458	      7.09663109	      6.90052692	     -1.60772895	      0.72352278	      0.19889087	     13.38626509	     -6.16087683	      3.16864539	      4.53791210	      9.51188517	     -5.23881899	      0.00000000	    -21.50724462	     10.47531880	      7.16392259	    -13.49755553	     19.71830212	    -16.53323465	      0.00000000	    -29.36980257	     -5.61423617	    -14.67863928
